<svg width="8" height="14" viewBox="0 0 8 14" fill="none" xmlns="http://www.w3.org/2000/svg">
<path d="M6.08333 13.0667L0.466658 7.46668C0.399992 7.40002 0.352881 7.32779 0.325325 7.25002C0.297325 7.17224 0.283325 7.08891 0.283325 7.00002C0.283325 6.91113 0.297325 6.82779 0.325325 6.75002C0.352881 6.67224 0.399992 6.60002 0.466658 6.53335L6.08333 0.916683C6.23888 0.761127 6.43333 0.68335 6.66666 0.68335C6.89999 0.68335 7.09999 0.766683 7.26666 0.93335C7.43332 1.10002 7.51666 1.29446 7.51666 1.51668C7.51666 1.73891 7.43332 1.93335 7.26666 2.10002L2.36666 7.00002L7.26666 11.9C7.42221 12.0556 7.49999 12.2471 7.49999 12.4747C7.49999 12.7027 7.41666 12.9 7.24999 13.0667C7.08333 13.2334 6.88888 13.3167 6.66666 13.3167C6.44444 13.3167 6.24999 13.2334 6.08333 13.0667Z" fill="#576F91"/>
</svg>
