<svg width="22" height="22" viewBox="0 0 22 22" fill="none" xmlns="http://www.w3.org/2000/svg">
<path d="M2.75 9.16667V7.33333C2.75 6.8471 2.94315 6.38079 3.28697 6.03697C3.63079 5.69315 4.0971 5.5 4.58333 5.5H6.41667M2.75 9.16667C3.97192 9.16667 6.41667 8.43333 6.41667 5.5M2.75 9.16667V12.8333M19.25 9.16667V7.33333C19.25 6.8471 19.0568 6.38079 18.713 6.03697C18.3692 5.69315 17.9029 5.5 17.4167 5.5H15.5833M19.25 9.16667C18.0281 9.16667 15.5833 8.43333 15.5833 5.5M19.25 9.16667V12.8333M6.41667 5.5H15.5833M19.25 12.8333V14.6667C19.25 15.1529 19.0568 15.6192 18.713 15.963C18.3692 16.3068 17.9029 16.5 17.4167 16.5H15.5833M19.25 12.8333C18.0281 12.8333 15.5833 13.5667 15.5833 16.5M15.5833 16.5H6.41667M2.75 12.8333V14.6667C2.75 15.1529 2.94315 15.6192 3.28697 15.963C3.63079 16.3068 4.0971 16.5 4.58333 16.5H6.41667M2.75 12.8333C3.97192 12.8333 6.41667 13.5667 6.41667 16.5" stroke="#1E3961" stroke-width="1.5" stroke-linecap="round" stroke-linejoin="round"/>
<path d="M11 12.8333C12.0125 12.8333 12.8333 12.0125 12.8333 11C12.8333 9.98748 12.0125 9.16667 11 9.16667C9.98748 9.16667 9.16667 9.98748 9.16667 11C9.16667 12.0125 9.98748 12.8333 11 12.8333Z" stroke="#1E3961" stroke-width="2" stroke-linecap="round" stroke-linejoin="round"/>
</svg>
