<svg width="20" height="20" viewBox="0 0 20 20" fill="none" xmlns="http://www.w3.org/2000/svg">
<path d="M10 1.875C8.89375 1.875 8.16188 2.49 7.87125 3.125C7.65125 3.60625 7.67813 3.94062 7.67563 4.21875C7.19404 4.5487 6.74306 4.92124 6.32812 5.33188C5.45438 6.20625 4.97562 7.45062 5 8.76937C5.0125 9.3775 5.13687 9.98812 5.37125 10.6056C5.48812 10.9156 5.70312 11.4525 5.89875 12.0506C6.09375 12.6488 6.25 13.3081 6.25 13.75H5.56625C5.40049 13.7552 5.24359 13.8261 5.13007 13.947C5.01656 14.0679 4.95572 14.2289 4.96094 14.3947C4.96616 14.5604 5.03701 14.7173 5.15792 14.8309C5.27882 14.9444 5.43986 15.0052 5.60562 15L4.4925 16.5037L4.375 16.66V18.125H15.625V16.66L15.5075 16.5037L14.375 15C14.6 15.0025 14.8094 14.885 14.9244 14.69C14.9795 14.5942 15.0086 14.4856 15.0086 14.375C15.0086 14.2644 14.9795 14.1558 14.9244 14.06C14.8094 13.865 14.5994 13.7475 14.375 13.75H13.75C13.75 12.3363 12.8713 11.04 12.0506 10.0387C11.5819 9.46563 11.4281 9.365 11.1131 9.0625C11.2256 8.99687 11.365 8.91875 11.4456 8.86688C11.5456 8.80375 11.5994 8.76438 11.6206 8.75C11.7969 8.75 11.8094 8.77938 11.9925 8.92562C12.175 9.0725 12.5487 9.375 13.0662 9.375C13.5206 9.375 13.8525 9.08188 14.0238 8.86688C14.18 8.66937 14.265 8.52063 14.2775 8.49625C14.3337 8.46938 14.4556 8.43 14.6094 8.32062C14.7631 8.21062 14.9631 7.96625 15 7.69562C15.0369 7.42438 14.9513 7.1875 14.8438 6.95312C14.685 6.60625 14.3894 6.20875 13.9256 5.7225C13.4619 5.23688 12.8538 4.72187 12.1094 4.41375C12.0531 4.38937 12.0994 4.42625 12.07 4.395C12.0413 4.3625 11.9531 4.23125 11.7775 4.10125C11.5481 3.93312 11.05 3.91375 10.625 3.86687V1.875H10ZM9.375 3.26187V5H10C10.8519 5 11.04 5.1025 11.035 5.0975C11.0325 5.095 11.0375 5.1075 11.1331 5.215C11.2742 5.37322 11.4471 5.49974 11.6406 5.58625C12.1406 5.79375 12.6419 6.19875 13.0275 6.60125C13.3888 6.9775 13.6306 7.35125 13.6719 7.42188C13.5719 7.47062 13.4669 7.505 13.34 7.65625C13.1687 7.86375 13.1081 8.00812 13.0469 8.08625C13.0275 8.11062 13.03 8.1175 13.0275 8.125C12.9738 8.1175 12.9369 8.08375 12.7731 7.94938C12.5681 7.78312 12.1606 7.5 11.6213 7.5C11.2106 7.5 10.9788 7.6875 10.7812 7.8125C10.5837 7.9375 10.425 8.0275 10.3713 8.04688L10.3513 8.06625H10.3325C10.2175 8.115 10.02 8.125 10.02 8.125L9.375 8.10563V9.10187L9.59 9.27688C9.59 9.27688 10.3319 9.93188 11.0744 10.8394C11.8162 11.7488 12.5 12.9181 12.5 13.75H7.5C7.5 13.0494 7.30437 12.3144 7.09 11.66C6.875 11.0056 6.62125 10.435 6.52375 10.1756C6.35153 9.7131 6.25897 9.22472 6.25 8.73125C6.23063 7.7275 6.58938 6.82938 7.20688 6.21187C7.615 5.80375 8.2225 5.29312 8.55438 5.09812L8.86688 4.9225V4.57063C8.86688 4.33938 8.86687 3.95062 9.00437 3.65312C9.07666 3.48226 9.20829 3.3433 9.375 3.26187ZM7.1875 15H12.8125L14.2188 16.875H5.78125L7.1875 15Z" fill="#1083F8"/>
</svg>
