<svg width="20" height="20" viewBox="0 0 20 20" fill="none" xmlns="http://www.w3.org/2000/svg">
<path d="M9.99167 1.66667C5.39167 1.66667 1.66667 5.40001 1.66667 10C1.66667 14.6 5.39167 18.3333 9.99167 18.3333C14.6 18.3333 18.3333 14.6 18.3333 10C18.3333 5.40001 14.6 1.66667 9.99167 1.66667ZM10 16.6667C6.31667 16.6667 3.33334 13.6833 3.33334 10C3.33334 6.31667 6.31667 3.33334 10 3.33334C13.6833 3.33334 16.6667 6.31667 16.6667 10C16.6667 13.6833 13.6833 16.6667 10 16.6667ZM9.81667 5.83334H9.76667C9.43334 5.83334 9.16667 6.10001 9.16667 6.43334V10.3667C9.16667 10.6583 9.31667 10.9333 9.57501 11.0833L13.0333 13.1583C13.3167 13.325 13.6833 13.2417 13.85 12.9583C13.8919 12.8909 13.9197 12.8157 13.9319 12.7372C13.944 12.6587 13.9403 12.5786 13.9208 12.5016C13.9014 12.4247 13.8667 12.3524 13.8187 12.2891C13.7707 12.2258 13.7105 12.1729 13.6417 12.1333L10.4167 10.2167V6.43334C10.4167 6.10001 10.15 5.83334 9.81667 5.83334Z" fill="#1E3961"/>
</svg>
