<svg width="20" height="20" viewBox="0 0 20 20" fill="none" xmlns="http://www.w3.org/2000/svg">
<path d="M4.25813 1.50375L3.37813 2.3825L4.6875 3.69125L5.56625 2.8125L4.2575 1.50375H4.25813ZM15.7425 1.50375L14.4331 2.8125L15.3125 3.69125L16.6213 2.38313L15.7419 1.50375H15.7425ZM10 1.89375C9.79375 1.89625 9.585 1.90813 9.375 1.93375C9.36875 1.93375 9.3625 1.9325 9.35625 1.93375C6.82125 2.22438 4.80375 4.2725 4.45312 6.79625C4.17313 8.8275 5.01062 10.6694 6.40625 11.8556C6.97713 12.3428 7.36327 13.0114 7.5 13.7494V17.4994H8.925C9.1425 17.8725 9.53938 18.1244 10 18.1244C10.4606 18.1244 10.8575 17.8725 11.075 17.4994H12.5V14.9994H12.5588V14.2569C12.5588 13.3406 13.035 12.4169 13.8088 11.6988C14.8438 10.6625 15.625 9.19063 15.625 7.5C15.625 4.4125 13.0837 1.865 10 1.89375ZM10 3.14375C12.4156 3.11 14.375 5.0875 14.375 7.5C14.375 8.80875 13.7688 9.96125 12.9294 10.8L12.9494 10.82C12.1152 11.5892 11.5759 12.6255 11.4244 13.75H8.69062C8.55312 12.6788 8.09375 11.6419 7.22563 10.8981C6.12125 9.96063 5.46313 8.54813 5.68313 6.95313C5.95625 4.98438 7.55375 3.40125 9.51125 3.18438C9.67286 3.16185 9.83562 3.14849 9.99875 3.14438L10 3.14375ZM1.25 7.5V8.75H3.125V7.5H1.25ZM16.875 7.5V8.75H18.75V7.5H16.875ZM4.6875 12.5588L3.37875 13.8669L4.25813 14.7463L5.56562 13.4375L4.6875 12.5588ZM15.3125 12.5588L14.4338 13.4375L15.7419 14.7463L16.6213 13.8669L15.3125 12.5588ZM8.75 15H11.25V16.25H8.75V15Z" fill="#A8B0BE"/>
</svg>
