<svg width="16" height="16" viewBox="0 0 16 16" fill="none" xmlns="http://www.w3.org/2000/svg">
<g clip-path="url(#clip0_25_48)">
<path d="M1.6 0.533333V0C1.45855 0 1.32289 0.0561903 1.22288 0.15621C1.12286 0.256229 1.06667 0.391885 1.06667 0.533333H1.6ZM1.6 14.4H1.06667C1.06667 14.5414 1.12286 14.6771 1.22288 14.7771C1.32289 14.8771 1.45855 14.9333 1.6 14.9333V14.4ZM4.26667 0V16H5.33333V0H4.26667ZM1.6 1.06667H12.2667V0H1.6V1.06667ZM13.8667 2.66667V12.2667H14.9333V2.66667H13.8667ZM12.2667 13.8667H1.6V14.9333H12.2667V13.8667ZM2.13333 14.4V0.533333H1.06667V14.4H2.13333ZM13.8667 12.2667C13.8667 12.691 13.6981 13.098 13.398 13.398C13.098 13.6981 12.691 13.8667 12.2667 13.8667V14.9333C12.9739 14.9333 13.6522 14.6524 14.1523 14.1523C14.6524 13.6522 14.9333 12.9739 14.9333 12.2667H13.8667ZM12.2667 1.06667C12.691 1.06667 13.098 1.23524 13.398 1.5353C13.6981 1.83535 13.8667 2.24232 13.8667 2.66667H14.9333C14.9333 1.95942 14.6524 1.28115 14.1523 0.781049C13.6522 0.280952 12.9739 0 12.2667 0V1.06667ZM7.46667 5.33333H11.7333V4.26667H7.46667V5.33333Z" fill="#A8B0BE"/>
</g>
<defs>
<clipPath id="clip0_25_48">
<rect width="16" height="16" fill="white"/>
</clipPath>
</defs>
</svg>
